<?xml version="1.0" encoding="UTF-8"?>
<svg id="Lager_2" data-name="Lager 2" xmlns="http://www.w3.org/2000/svg" viewBox="0 0 791.34 93.79">
  <defs>
    <style>
      .cls-1, .cls-2 {
        fill: #5eb130;
      }

      .cls-3, .cls-4, .cls-2, .cls-5 {
        stroke: #1d1d1b;
        stroke-miterlimit: 10;
      }

      .cls-3, .cls-5 {
        fill: none;
      }

      .cls-4 {
        fill: #1d1d1b;
        stroke-width: .25px;
      }

      .cls-5 {
        stroke-width: 2px;
      }
    </style>
  </defs>
  <g id="Lager_1-2" data-name="Lager 1">
    <g>
      <path class="cls-2" d="M412.57,39.79s-.04-.09-.06-.14c-.1-.35-.23-.7-.44-1.06-.54-.92-1.55-1.78-2.6-2.15-.1-.04-.2-.08-.3-.11-.03,0-.06-.02-.08-.03-.02,0-.05,0-.07,0-.17-.05-.35-.11-.53-.14-.15-.77-.35-1.5-.54-2.24,.64-.17,1.24-.45,1.74-.84,.83-.64,1.55-1.55,1.79-2.6,.32-1.39,.07-2.55-.5-3.85-.33-.76-.71-1.49-1.09-2.22-1.86-3.52-3.89-6.92-6.53-9.92-2.64-3.01-5.92-5.24-9.65-6.66-1.02-.39-2.31-.15-3.26,.25-.96,.41-1.89,1.1-2.39,2.05,0,0,0,0,0,.01-.69-.29-1.41-.58-2.16-.84,.04-.17,.1-.34,.12-.51,.34-2.55-1.2-4.66-3.58-5.49-.78-.27-1.57-.5-2.37-.72-3.81-1.03-7.71-1.92-11.67-2.05-4.05-.14-7.99,.68-11.64,2.45-1.9,.92-2.94,3.67-2.3,5.65,.02,.05,.04,.09,.05,.13-.12,.04-.24,.07-.36,.11-.16-.38-.36-.75-.61-1.09-1.58-2.04-4.19-2.42-6.45-1.29-.73,.36-1.44,.77-2.14,1.19-3.32,1.97-6.61,4.1-9.41,6.78-2.87,2.76-5.1,6.12-6.33,9.91-.31,.95-.22,2.04,.14,3.03-2.63-.35-4.52,1.24-5.47,3.58-.31,.76-.57,1.53-.83,2.3-1.22,3.74-2.21,7.49-2.54,11.42-.34,4.03,.4,7.89,1.97,11.59,.54,1.28,2.02,2.13,3.5,2.39,.05,.23,.12,.46,.17,.69-.34,.07-.68,.16-1.02,.3-2.25,.95-3.59,3.48-2.89,5.9,.23,.8,.5,1.57,.78,2.35,2.71,7.37,6.24,14.98,13.46,18.92,1.88,1.03,4.54,.87,6.06-.78,.82-.89,1.34-2.09,1.43-3.31,.16,.09,.31,.18,.47,.26-.02,.07-.06,.15-.08,.22-.45,1.99,.24,4.74,2.3,5.65,1.14,.5,2.29,.97,3.47,1.4,6.88,2.48,14.67,4.43,21.78,1.66,2.26-.88,3.8-2.72,3.59-5.21,.24-.04,.49-.09,.73-.14,.07,.29,.16,.58,.28,.88,.94,2.23,3.5,3.62,5.9,2.89,.79-.24,1.57-.52,2.34-.81,7.33-2.79,14.93-6.39,18.78-13.65,1.01-1.9,.89-4.53-.78-6.06-.19-.17-.39-.33-.6-.47,.39-.61,.75-1.24,1.1-1.87,2.06,.54,4.64-.21,5.61-2.25,3.63-7.66,6.68-17.1,3.7-25.45Zm-46.12,31.28c-5.45,0-11.71-1.16-16.93-6.5-3.6-3.6-6.26-9.16-6.26-16.24,0-6.5,2.55-12.99,7.08-17.75,4.64-4.87,10.79-7.42,18.44-7.42,4.76,0,10.9,1.04,16.01,6.03,5.1,4.99,6.15,11.25,6.15,16.24,0,8-3.02,14.73-7.19,19.02-5.68,5.8-12.06,6.61-17.28,6.61Z"/>
      <path class="cls-1" d="M367.35,35.2c-.99-4.41-2.1-8.8-3.37-13.14-.37-1.25-1.78-2.17-3.08-1.75s-2.06,1.71-1.75,3.08c.9,3.86,1.8,7.71,2.69,11.57l.38,1.63c.32,1.39,1.79,2,3.08,1.75,.1-.02,.2-.04,.29-.06,1.29-.23,2.14-1.87,1.75-3.08-.45-1.38-1.69-2-3.08-1.75-.1,.02-.2,.04-.29,.06l3.08,1.75c-.9-3.86-1.8-7.71-2.69-11.57l-.38-1.63-4.82,1.33c1.27,4.34,2.38,8.72,3.37,13.14,.29,1.28,1.83,2.15,3.08,1.75,1.34-.43,2.05-1.71,1.75-3.08Z"/>
      <path class="cls-1" d="M373.84,43.31l.08,.26c.35,1.21,1.79,2.22,3.08,1.75,5.14-1.91,10.21-4,15.19-6.29,1.13-.52,1.46-2.08,1.02-3.12s-1.79-1.91-2.95-1.45c-4.27,1.68-8.55,3.36-12.82,5.05-.62,.24-1.23,.49-1.85,.73-1.21,.48-2.19,1.7-1.75,3.08,.38,1.18,1.77,2.26,3.08,1.75,4.27-1.68,8.55-3.36,12.82-5.05,.62-.24,1.23-.49,1.85-.73l-1.93-4.57c-4.67,2.15-9.09,3.96-14,5.78l3.08,1.75-.08-.26c-.36-1.25-1.78-2.17-3.08-1.75s-2.14,1.73-1.75,3.08Z"/>
      <path class="cls-1" d="M357.3,46.98c-4.5,1.77-8.99,3.54-13.49,5.31-.64,.25-1.28,.5-1.92,.75-1.21,.48-2.19,1.7-1.75,3.08,.4,1.24,1.75,2.19,3.08,1.75,5.24-1.74,10.41-3.68,15.5-5.83,1.14-.48,2.29-1.69,1.75-3.08l-.09-.24c-.48-1.21-1.7-2.19-3.08-1.75-1.18,.38-2.26,1.77-1.75,3.08l.09,.24,1.75-3.08c-5.09,2.14-10.26,4.09-15.5,5.83l1.33,4.82c4.5-1.77,8.99-3.54,13.49-5.31,.64-.25,1.28-.5,1.92-.75,1.21-.48,2.19-1.7,1.75-3.08-.38-1.18-1.77-2.26-3.08-1.75Z"/>
      <path class="cls-1" d="M366.92,56.09c.73,4.57,1.45,9.13,2.18,13.7,.1,.65,.21,1.3,.31,1.95,.19,1.22,1.63,1.94,2.74,1.79s2.29-1.22,2.17-2.46c-.56-5.49-1.34-10.95-2.32-16.38-.24-1.34-1.86-2.07-3.08-1.75l-.26,.07c-1.26,.34-2.16,1.8-1.75,3.08s1.72,2.11,3.08,1.75l.26-.07-3.08-1.75c.92,5.12,1.61,9.94,2.14,15.05l4.91-.66c-.73-4.57-1.45-9.13-2.18-13.7-.1-.65-.21-1.3-.31-1.95-.21-1.3-1.89-2.13-3.08-1.75-1.41,.46-1.97,1.69-1.75,3.08Z"/>
      <path class="cls-1" d="M373.55,48.92c-.03,.09-.07,.18-.1,.26-.52,1.29,.58,2.7,1.75,3.08,4.71,1.51,9.47,2.87,14.27,4.04,1.27,.31,2.77-.4,3.08-1.75s-.41-2.67-1.75-3.08c-4.13-1.26-8.26-2.51-12.4-3.77l-1.77-.54c-1.25-.38-2.78,.45-3.08,1.75s.41,2.67,1.75,3.08c4.13,1.26,8.26,2.51,12.4,3.77l1.77,.54,1.33-4.82c-4.81-1.17-9.56-2.53-14.27-4.04l1.75,3.08c.04-.09,.07-.17,.1-.26,.47-1.22-.52-2.8-1.75-3.08-1.43-.33-2.57,.44-3.08,1.75Z"/>
      <path class="cls-1" d="M360.02,53.24c-2.56,3.72-5.13,7.44-7.69,11.15l-1.1,1.6c-.71,1.03-.27,2.52,.64,3.23s2.52,.79,3.28-.2c3.3-4.26,6.45-8.64,9.42-13.13,.72-1.08,.26-2.83-.9-3.42-.08-.04-.16-.08-.24-.13-1.15-.61-2.77-.33-3.42,.9-.61,1.16-.34,2.77,.9,3.42,.08,.04,.16,.09,.24,.13l-.9-3.42c-1.41,2.12-2.85,4.22-4.33,6.3-.73,1.02-1.47,2.03-2.21,3.04-.39,.52-.77,1.04-1.16,1.55-.2,.26-.39,.52-.59,.77-.05,.07-.61,.79-.35,.45l3.93,3.03c2.56-3.72,5.13-7.44,7.69-11.15l1.1-1.6c.74-1.08,.24-2.82-.9-3.42-1.27-.67-2.63-.26-3.42,.9Z"/>
      <path class="cls-1" d="M359.38,39.41c-3.28-2.06-6.57-4.12-9.85-6.19l-1.38-.87c-1.11-.7-2.8-.27-3.42,.9-.68,1.29-.25,2.61,.9,3.42,3.62,2.57,7.34,5.01,11.12,7.34,.68,.42,1.51,.43,2.22,.13,.76-.32,1.16-.87,1.45-1.62,.04-.1,.07-.19,.11-.29,.49-1.22-.53-2.8-1.75-3.08-1.45-.33-2.55,.44-3.08,1.75-.04,.1-.08,.19-.11,.29l3.67-1.49c-3.78-2.33-7.49-4.77-11.12-7.34l-2.52,4.32c3.28,2.06,6.57,4.12,9.85,6.19l1.38,.87c1.11,.7,2.8,.27,3.42-.9,.65-1.23,.29-2.68-.9-3.42Z"/>
      <path class="cls-1" d="M371.07,39.3l.22,.15c1.15,.77,2.73,.19,3.42-.9,2.92-4.6,5.66-9.31,8.21-14.12,.61-1.15,.33-2.77-.9-3.42s-2.7-.3-3.42,.9c-2.46,4.07-4.92,8.15-7.38,12.22l-1.06,1.75c-.68,1.12-.29,2.8,.9,3.42s2.7,.3,3.42-.9c2.46-4.07,4.92-8.15,7.38-12.22l1.06-1.75-4.32-2.52c-2.55,4.81-5.3,9.52-8.21,14.12l3.42-.9-.22-.15c-1.09-.73-2.82-.25-3.42,.9-.67,1.26-.26,2.64,.9,3.42Z"/>
    </g>
    <path class="cls-4" d="M709.9,16.79c6.61,6.38,10.9,16.12,10.9,27.49s-3.83,22.97-11.95,31.32c-9.74,9.98-21.92,11.95-32.01,11.95s-20.3-1.74-29.46-11.02c-5.34-5.45-10.9-14.38-10.9-27.03,0-13.57,5.45-24.13,12.76-31.09,9.86-9.4,21.81-11.72,31.78-11.72,14.85,0,23.78,5.22,28.88,10.09Zm-48.02,13.8c-4.52,4.76-7.08,11.25-7.08,17.75,0,7.07,2.67,12.64,6.26,16.24,5.22,5.34,11.48,6.5,16.93,6.5s11.6-.81,17.28-6.61c4.18-4.29,7.19-11.02,7.19-19.02,0-4.99-1.04-11.25-6.15-16.24-5.1-4.99-11.25-6.03-16.01-6.03-7.66,0-13.8,2.55-18.44,7.42Z"/>
    <g>
      <path class="cls-4" d="M34.82,23.52l-7.65,62.29H9.3l7.66-62.29H.14L2,8.44H53.5l-1.86,15.08h-16.82Z"/>
      <path class="cls-4" d="M87.14,8.44c7.42,0,14.73,.7,20.53,6.96,2.67,2.78,5.57,7.77,5.57,15.77,0,7.31-2.55,13.11-6.38,16.93-3.36,3.25-8,5.45-12.3,6.26l19.95,31.43h-20.88l-18.67-30.51-3.71,30.51h-17.86L62.89,8.44h24.24Zm-10.79,35.15h4.41c2.9,0,7.31-.35,10.44-2.78,3.13-2.44,3.94-5.8,3.94-9.05,0-2.44-.58-5.57-3.71-7.54-2.32-1.51-5.68-1.86-9.74-1.86h-2.67l-2.67,21.23Z"/>
      <path class="cls-4" d="M171.7,71.19h-29.23l-7.31,14.61h-19.25L156.73,8.44h16.47l20.76,77.37h-18.33l-3.94-14.61Zm-3.25-13.69l-6.26-27.26-12.99,27.26h19.25Z"/>
      <path class="cls-4" d="M256.49,83.37c-2.55,1.28-8.82,4.18-18.79,4.18-14.61,0-23.08-6.26-27.26-10.32-4.99-4.99-10.44-13.34-10.44-26.79s5.1-24.48,12.29-31.67c6.5-6.49,16.82-12.06,30.97-12.06,11.95,0,19.14,3.94,21.92,5.57l-2.2,18.91c-3.13-3.13-9.05-7.77-19.37-7.77-7.42,0-13.45,1.97-18.33,7.31-4.76,5.1-6.96,12.06-6.96,18.21,0,6.49,2.55,12.41,6.03,15.89,3.48,3.48,9.28,6.03,16.35,6.03,7.65,0,13.8-3.25,18.09-6.73l-2.32,19.25Z"/>
      <path class="cls-4" d="M306.25,23.52l-7.65,62.29h-17.86l7.66-62.29h-16.82l1.86-15.08h51.5l-1.86,15.08h-16.82Z"/>
      <path class="cls-4" d="M451.36,8.44c7.42,0,14.73,.7,20.53,6.96,2.67,2.78,5.57,7.77,5.57,15.77,0,7.31-2.55,13.11-6.38,16.93-3.36,3.25-8,5.45-12.29,6.26l19.95,31.43h-20.88l-18.67-30.51-3.71,30.51h-17.86l9.51-77.37h24.24Zm-10.79,35.15h4.41c2.9,0,7.31-.35,10.44-2.78,3.13-2.44,3.94-5.8,3.94-9.05,0-2.44-.58-5.57-3.71-7.54-2.32-1.51-5.68-1.86-9.74-1.86h-2.67l-2.67,21.23Z"/>
      <path class="cls-4" d="M535.22,27.34c-4.87-4.41-9.51-5.57-12.99-5.57-2.2,0-5.34,.35-7.31,1.97-1.62,1.28-2.67,3.48-2.67,5.57,0,2.32,1.04,3.94,2.67,5.22,1.62,1.39,3.71,2.32,7.54,4.06l4.53,2.09c3.71,1.74,7.19,3.71,10.21,7.42,2.78,3.48,3.94,7.08,3.94,12.06,0,8.12-3.25,15.31-7.77,19.84-6.26,6.15-14.27,7.54-22.16,7.54-5.68,0-10.21-.7-15.43-3.48-3.83-2.09-7.54-5.22-10.32-8.24l9.97-12.76c1.62,2.2,4.18,4.64,6.5,6.15,2.44,1.51,5.68,2.55,9.05,2.55,2.67,0,6.38-.81,8.58-2.44,2.09-1.62,3.25-4.29,3.25-7.19s-1.28-4.41-2.2-5.34c-.58-.58-2.09-1.86-6.15-3.48l-4.52-1.86c-1.28-.46-7.19-3.02-10.9-6.84-3.71-3.83-5.1-8.24-5.1-13.11,0-8,3.25-13.8,6.96-17.51,6.26-6.15,14.27-7.31,20.88-7.31s14.27,1.28,22.39,7.66l-8.93,12.99Z"/>
      <path class="cls-4" d="M575.58,37.44h30.85l3.6-29h17.86l-9.51,77.37h-17.86l4.06-33.29h-30.85l-4.06,33.29h-17.86l9.51-77.37h17.86l-3.6,29Z"/>
      <path class="cls-4" d="M764.88,8.44c5.45,0,13.8,.23,20.07,6.5,3.48,3.48,6.26,8.7,6.26,16.59,0,8.58-2.9,16.01-7.54,20.3-3.48,3.25-10.09,6.84-22.97,6.84h-10.21l-3.37,27.14h-17.86l9.51-77.37h26.1Zm-12.64,35.61h6.38c3.83,0,8.24-.35,11.25-3.36,2.67-2.55,3.02-6.03,3.02-8,0-2.2-.46-4.76-2.55-6.73-2.79-2.67-7.42-2.9-10.09-2.9h-5.34l-2.67,21Z"/>
    </g>
    <circle class="cls-5" cx="367.08" cy="45.46" r="6.28"/>
    <line class="cls-5" x1="369.11" y1="22.73" x2="368.73" y2="39.89"/>
    <line class="cls-5" x1="385.64" y1="29.33" x2="372.33" y2="41.86"/>
    <line class="cls-5" x1="391.58" y1="44.34" x2="373.73" y2="45.46"/>
    <line class="cls-5" x1="387.3" y1="60.55" x2="371.12" y2="50.82"/>
    <line class="cls-5" x1="364.64" y1="71.59" x2="364.94" y2="51.74"/>
    <line class="cls-5" x1="347.35" y1="63.22" x2="361.76" y2="48.77"/>
    <line class="cls-5" x1="343.25" y1="47.76" x2="360.81" y2="45.46"/>
    <line class="cls-5" x1="351.31" y1="28.64" x2="362.42" y2="41.28"/>
    <ellipse class="cls-3" cx="367.56" cy="47.12" rx="35.99" ry="35.28"/>
  </g>
</svg>